<svg width="99" height="97" viewBox="0 0 99 97" fill="none" xmlns="http://www.w3.org/2000/svg">
<g opacity="0.209937">
<path d="M61.4822 2.87724C61.4822 4.46636 60.1939 5.75467 58.6049 5.75467C57.0157 5.75467 55.7275 4.46636 55.7275 2.87724C55.7275 1.28821 57.0157 0 58.6049 0C60.1939 0 61.4822 1.28821 61.4822 2.87724Z" fill="#41AE80"/>
</g>
<g opacity="0.511326">
<path d="M38.8354 9.66454L37.1267 10.6511C36.8173 10.8297 36.4217 10.7237 36.2431 10.4144L33.1576 5.07006C32.9789 4.76076 33.085 4.3652 33.3943 4.18665L35.1031 3.20001C35.4124 3.02146 35.808 3.12742 35.9866 3.43673L39.0721 8.78103C39.2508 9.09043 39.1447 9.4859 38.8354 9.66454Z" fill="#4683F5"/>
</g>
<g opacity="0.511326">
<path d="M10.0279 21.277L10.4123 21.4073C10.8481 21.5552 11.3288 21.479 11.6977 21.2037L12.023 20.961C12.9518 20.2678 14.2725 20.9406 14.2577 22.0996L14.2525 22.5054C14.2465 22.9656 14.4674 23.3993 14.8432 23.665L15.1746 23.8994C16.1209 24.5686 15.889 26.0324 14.7823 26.3765L14.3946 26.4969C13.9552 26.6335 13.6112 26.9777 13.4746 27.4172L13.354 27.8048C13.01 28.9116 11.5462 29.1434 10.8769 28.1971L10.6425 27.8657C10.3767 27.49 9.94309 27.269 9.48295 27.2749L9.07702 27.28C7.91815 27.2948 7.24534 25.9744 7.93851 25.0454L8.18135 24.7201C8.45662 24.3513 8.5327 23.8706 8.38488 23.4347L8.25451 23.0504C7.88233 21.9527 8.93024 20.9048 10.0279 21.277Z" fill="#4683F5"/>
</g>
<g opacity="0.511326">
<path d="M7.29961 41.6548L7.73118 43.5802C7.80933 43.9287 7.59016 44.2747 7.24154 44.3528L1.21999 45.7026C0.871473 45.7807 0.525593 45.5615 0.447348 45.213L0.0157765 43.2875C-0.0622797 42.939 0.1569 42.5931 0.505419 42.5151L6.52706 41.1652C6.87558 41.0871 7.22146 41.3063 7.29961 41.6548Z" fill="#50D05C"/>
</g>
<g opacity="0.511326">
<path d="M13.4132 66.2874C13.4132 67.8764 12.125 69.1646 10.5359 69.1646C8.94681 69.1646 7.65869 67.8764 7.65869 66.2874C7.65869 64.6984 8.94681 63.4102 10.5359 63.4102C12.125 63.4102 13.4132 64.6984 13.4132 66.2874Z" fill="#F82681"/>
</g>
<g opacity="0.511326">
<path d="M10.0279 80.4547L10.4123 80.5851C10.8481 80.7328 11.3288 80.6568 11.6977 80.3815L12.023 80.1386C12.9518 79.4456 14.2725 80.1184 14.2577 81.2773L14.2525 81.6832C14.2465 82.1434 14.4674 82.5771 14.8432 82.8428L15.1746 83.0771C16.1209 83.7464 15.889 85.2101 14.7823 85.5542L14.3946 85.6747C13.9552 85.8113 13.6112 86.1555 13.4746 86.595L13.354 86.9825C13.01 88.0894 11.5462 88.3212 10.8769 87.3749L10.6425 87.0435C10.3767 86.6677 9.94309 86.4468 9.48295 86.4526L9.07702 86.4579C7.91815 86.4727 7.24534 85.1522 7.93851 84.2233L8.18135 83.8979C8.45662 83.529 8.5327 83.0484 8.38488 82.6125L8.25451 82.2282C7.88233 81.1305 8.93024 80.0826 10.0279 80.4547Z" fill="#FFBC32"/>
</g>
<g opacity="0.511326">
<path d="M84.0894 18.5362C83.2175 17.3997 83.4874 15.7069 84.6876 14.7861C85.8877 13.8652 87.5928 14.0426 88.4647 15.179C88.4664 15.1812 88.4679 15.1833 88.4696 15.1854" stroke="#F82681" stroke-width="1.88542" stroke-linecap="round" stroke-linejoin="round"/>
</g>
<g opacity="0.511326">
<path d="M91.8492 34.2115L92.2335 34.3419C92.6693 34.4897 93.1501 34.4136 93.5189 34.1383L93.8443 33.8955C94.7733 33.2024 96.0937 33.8752 96.0789 35.0341L96.0737 35.44C96.0679 35.9002 96.2889 36.3339 96.6645 36.5996L96.996 36.834C97.9423 37.5032 97.7105 38.9669 96.6037 39.311L96.2159 39.4315C95.7764 39.5681 95.4324 39.9123 95.2958 40.3518L95.1752 40.7394C94.8312 41.8462 93.3674 42.078 92.6983 41.1317L92.4639 40.8003C92.1981 40.4246 91.7645 40.2036 91.3043 40.2095L90.8983 40.2147C89.7395 40.2294 89.0666 38.909 89.7598 37.9801L90.0026 37.6548C90.2779 37.2859 90.354 36.8052 90.2061 36.3693L90.0757 35.985C89.7036 34.8873 90.7515 33.8394 91.8492 34.2115Z" fill="#FFBB31"/>
</g>
<g opacity="0.511326">
<path d="M94.5371 68.3115C96.4936 68.5692 97.8797 70.4814 97.6076 72.5476C97.3356 74.6138 95.5017 76.1021 93.5453 75.8443C93.5415 75.8439 93.5379 75.8434 93.5342 75.8429" stroke="#F82681" stroke-width="1.41406" stroke-linecap="round" stroke-linejoin="round"/>
</g>
<g opacity="0.511326">
<path d="M88.373 92.5845L86.6641 93.5711C86.3548 93.7496 85.9593 93.6437 85.7807 93.3344L82.6951 87.9901C82.5166 87.6807 82.6225 87.2852 82.9318 87.1066L84.6407 86.12C84.95 85.9414 85.3456 86.0473 85.5241 86.3567L88.6097 91.701C88.7882 92.0103 88.6823 92.4059 88.373 92.5845Z" fill="#4683F5"/>
</g>
<g opacity="0.511326">
<path d="M32.3702 95.7017C31.1689 94.1361 31.5408 91.8038 33.1942 90.5352C34.8476 89.2665 37.1967 89.511 38.398 91.0765L38.4048 91.0854" stroke="#41AE80" stroke-width="1.88542" stroke-linecap="round" stroke-linejoin="round"/>
</g>
<path d="M83.5928 45.8164C83.5928 63.1156 69.5689 77.1396 52.2696 77.1396C34.9703 77.1396 20.9463 63.1156 20.9463 45.8164C20.9463 28.517 34.9703 14.4932 52.2696 14.4932C69.5689 14.4932 83.5928 28.517 83.5928 45.8164Z" fill="#34C759"/>
<path d="M38.4424 45.8701L47.6251 55.053L66.097 36.5811" stroke="white" stroke-width="4.96955" stroke-linecap="round" stroke-linejoin="round"/>
</svg>
