<svg width="18" height="18" viewBox="0 0 18 18" fill="none" xmlns="http://www.w3.org/2000/svg">
  <path d="M2.1084 7.5127C0.962891 8.04395 1.27832 9.57959 2.54004 9.58789L8.59131 9.61279C8.69092 9.61279 8.71582 9.6377 8.71582 9.7373L8.73242 15.7388C8.74072 17.0503 10.3013 17.2827 10.8574 16.0791L16.9917 2.88916C17.5562 1.66064 16.5933 0.789062 15.373 1.36182L2.1084 7.5127ZM3.55273 8.29297C3.51953 8.29297 3.51123 8.25977 3.55273 8.24316L15.481 2.78125C15.5391 2.75635 15.564 2.77295 15.5391 2.83936L10.0439 14.7593C10.0356 14.7925 10.0024 14.7842 10.0024 14.751L10.0439 8.88232C10.0439 8.51709 9.78662 8.25977 9.41309 8.25977L3.55273 8.29297Z" fill="#AEAEB2" />
</svg>
