<svg width="38" height="38" viewBox="0 0 18 18" fill="none" xmlns="http://www.w3.org/2000/svg">
<path d="M10.9766 17C11.5391 17 11.9375 16.5156 12.2266 15.7656L17.3438 2.39844C17.4844 2.03906 17.5625 1.71875 17.5625 1.45312C17.5625 0.945312 17.25 0.632812 16.7422 0.632812C16.4766 0.632812 16.1562 0.710938 15.7969 0.851562L2.35938 6C1.70312 6.25 1.19531 6.64844 1.19531 7.21875C1.19531 7.9375 1.74219 8.17969 2.49219 8.40625L8.13281 10.0625L9.77344 15.6328C10.0078 16.4219 10.25 17 10.9766 17ZM8.48438 8.875L3.09375 7.22656C2.96875 7.1875 2.92969 7.15625 2.92969 7.10156C2.92969 7.04688 2.96094 7.00781 3.07812 6.96094L13.6406 2.96094C14.2656 2.72656 14.8672 2.41406 15.4453 2.14844C14.9297 2.57031 14.2891 3.07031 13.8594 3.5L8.48438 8.875ZM11.1016 15.2812C11.0391 15.2812 11.0078 15.2266 10.9688 15.1016L9.32031 9.71094L14.6953 4.33594C15.1172 3.91406 15.6406 3.25781 16.0547 2.72656C15.7891 3.32031 15.4688 3.92188 15.2344 4.55469L11.2344 15.1172C11.1875 15.2344 11.1562 15.2812 11.1016 15.2812Z" fill="#6C6C70"/>
</svg>
