<svg width="19" height="18" viewBox="0 0 19 18" fill="none" xmlns="http://www.w3.org/2000/svg">
<path d="M9.5 17.6646C14.248 17.6646 18.1577 13.7549 18.1577 9.00684C18.1577 4.26709 14.2397 0.349121 9.4917 0.349121C4.75195 0.349121 0.842285 4.26709 0.842285 9.00684C0.842285 13.7549 4.75195 17.6646 9.5 17.6646ZM6.81885 12.543C6.3457 12.543 5.97217 12.1694 5.97217 11.6797C5.97217 11.4639 6.06348 11.248 6.22119 11.0903L8.28809 9.02344L6.22119 6.94824C6.06348 6.79053 5.97217 6.57471 5.97217 6.35889C5.97217 5.87744 6.3457 5.50391 6.81885 5.50391C7.07617 5.50391 7.26709 5.58691 7.43311 5.75293L9.5 7.81152L11.5835 5.74463C11.7578 5.57031 11.9487 5.49561 12.1978 5.49561C12.6709 5.49561 13.0444 5.86914 13.0444 6.34229C13.0444 6.57471 12.9697 6.77393 12.7954 6.94824L10.7202 9.02344L12.7871 11.082C12.9531 11.2397 13.0361 11.4556 13.0361 11.6797C13.0361 12.1694 12.6626 12.543 12.1812 12.543C11.9321 12.543 11.7163 12.46 11.5586 12.2939L9.5 10.2354L7.44971 12.2939C7.28369 12.46 7.07617 12.543 6.81885 12.543Z" fill="#D70015"/>
</svg>
