<svg width="24" height="24" viewBox="0 0 24 24" fill="none" xmlns="http://www.w3.org/2000/svg">
<circle cx="12" cy="12" r="11.5" fill="#eeeeee" stroke="#eeeeee"/>
<path d="M11.6192 19.4546C12.5776 19.6902 13.4677 18.9773 13.5319 18.0544C13.6041 17.0182 13.7625 16.0667 13.9609 15.5007C14.0862 15.1457 14.4411 14.5019 15.0035 13.8846C15.5618 13.2704 16.2886 12.7231 17.1397 12.4944C17.8133 12.314 18.5 11.7401 18.5 10.902V6.95701C18.5 6.12384 17.8163 5.51351 17.0485 5.43364C15.9759 5.32124 15.4806 5.02445 14.9754 4.72077L14.9273 4.69119C14.6546 4.5285 14.3479 4.34806 13.9549 4.21396C13.557 4.07987 13.0918 4 12.4853 4L8.9768 4C8.03751 4 7.3739 4.47032 7.03808 5.0491C6.87577 5.32223 6.78806 5.63201 6.78346 5.94834C6.78346 6.09821 6.80652 6.25597 6.86065 6.40584C6.65916 6.66516 6.47972 6.97575 6.37146 7.29423C6.26119 7.61961 6.19904 8.04556 6.36745 8.42714C6.29828 8.55532 6.24715 8.69237 6.20806 8.8245C6.13087 9.09072 6.09478 9.38454 6.09478 9.6695C6.09478 9.95347 6.13087 10.2463 6.20806 10.5135C6.24312 10.6364 6.28943 10.7558 6.34639 10.8704C6.17087 11.1161 6.05793 11.3996 6.01711 11.6972C5.97629 11.9947 6.00877 12.2976 6.11182 12.5802C6.31833 13.1639 6.79549 13.6648 7.31475 13.8344C8.16382 14.1124 9.12216 14.1065 9.8369 14.0424C9.98528 14.0293 10.1333 14.0128 10.281 13.9931C9.93323 15.4579 9.95456 16.9841 10.3431 18.439C10.4107 18.6721 10.5404 18.8832 10.7188 19.0505C10.8971 19.2177 11.1177 19.3351 11.3576 19.3905L11.6192 19.4546ZM8.9768 4.98501L12.4853 4.98501C12.9966 4.98501 13.3505 5.05305 13.6281 5.14672C13.9098 5.24236 14.1354 5.37153 14.406 5.53422L14.4461 5.55788C15.0025 5.89213 15.6471 6.27865 16.9422 6.41373C17.276 6.44922 17.4976 6.69967 17.4976 6.95603V10.902C17.4976 11.1524 17.271 11.4374 16.876 11.5429C15.7784 11.8387 14.8942 12.525 14.2557 13.227C13.6191 13.927 13.1891 14.6813 13.0146 15.1773C12.771 15.8675 12.6066 16.9205 12.5315 17.9874C12.5064 18.3443 12.1706 18.5731 11.8628 18.4981L11.6002 18.4331C11.4398 18.3936 11.3416 18.2921 11.3115 18.1816C10.9021 16.6474 10.9526 15.0294 11.4568 13.5228C11.4854 13.439 11.4905 13.3492 11.4717 13.2628C11.4528 13.1764 11.4107 13.0965 11.3497 13.0316C11.2888 12.9667 11.2112 12.9191 11.1251 12.8938C11.039 12.8685 10.9476 12.8664 10.8604 12.8878L10.8574 12.8888L10.8433 12.8917L10.7852 12.9056C10.4424 12.9771 10.0956 13.0288 9.74668 13.0604C9.08206 13.1195 8.28612 13.1136 7.63153 12.8986C7.4561 12.8415 7.18043 12.6028 7.06013 12.2577C6.95287 11.9541 6.97292 11.5971 7.32678 11.2501L7.68064 10.902L7.32678 10.553C7.28368 10.5106 7.22153 10.4139 7.17241 10.2424C7.12429 10.0777 7.09722 9.87754 7.09722 9.6695C7.09722 9.46047 7.12429 9.2613 7.17241 9.09565C7.22253 8.92408 7.28368 8.82746 7.32678 8.78506L7.68064 8.437L7.32678 8.08795C7.27967 8.04161 7.21752 7.91343 7.32177 7.60679C7.4304 7.30943 7.60309 7.03867 7.828 6.81306L8.18187 6.465L7.828 6.11596C7.82199 6.11102 7.7869 6.06666 7.7869 5.94834C7.79135 5.80371 7.83309 5.66257 7.9082 5.53816C8.0736 5.25419 8.41243 4.986 8.9768 4.986V4.98501Z" fill="white"/>
</svg>
