<svg width="24" height="24" viewBox="0 0 24 24" fill="none" xmlns="http://www.w3.org/2000/svg">
<circle cx="12" cy="12" r="11.5" fill="#eeeeee" stroke="#eeeeee"/>
<path d="M12.8808 4.04544C11.9224 3.80979 11.0323 4.52266 10.9681 5.44556C10.8959 6.48184 10.7375 7.43333 10.5391 7.9993C10.4138 8.35426 10.0589 8.99812 9.49652 9.61535C8.93816 10.2296 8.21139 10.7769 7.36031 11.0056C6.68667 11.186 6 11.7599 6 12.598V16.543C6 17.3762 6.68367 17.9865 7.45154 18.0664C8.52415 18.1788 9.01935 18.4755 9.52459 18.7792L9.5727 18.8088C9.84537 18.9715 10.1521 19.1519 10.5451 19.286C10.943 19.4201 11.4082 19.5 12.0147 19.5H15.5232C16.4625 19.5 17.1261 19.0297 17.4619 18.4509C17.6242 18.1778 17.7119 17.868 17.7165 17.5517C17.7165 17.4018 17.6935 17.244 17.6394 17.0942C17.8408 16.8348 18.0203 16.5243 18.1285 16.2058C18.2388 15.8804 18.301 15.4544 18.1326 15.0729C18.2017 14.9447 18.2528 14.8076 18.2919 14.6755C18.3691 14.4093 18.4052 14.1155 18.4052 13.8305C18.4052 13.5465 18.3691 13.2537 18.2919 12.9865C18.2569 12.8636 18.2106 12.7442 18.1536 12.6296C18.3291 12.3839 18.4421 12.1004 18.4829 11.8028C18.5237 11.5053 18.4912 11.2024 18.3882 10.9198C18.1817 10.3361 17.7045 9.83523 17.1852 9.66564C16.3362 9.38759 15.3778 9.3935 14.6631 9.45759C14.5147 9.47072 14.3667 9.48716 14.219 9.50689C14.5668 8.04208 14.5454 6.51588 14.1569 5.06102C14.0893 4.82792 13.9596 4.61681 13.7812 4.44953C13.6029 4.28225 13.3823 4.16487 13.1424 4.10953L12.8808 4.04544ZM15.5232 18.515H12.0147C11.5034 18.515 11.1495 18.447 10.8719 18.3533C10.5902 18.2576 10.3646 18.1285 10.094 17.9658L10.0539 17.9421C9.49752 17.6079 8.85295 17.2214 7.55779 17.0863C7.22398 17.0508 7.00244 16.8003 7.00244 16.544V12.598C7.00244 12.3476 7.22899 12.0626 7.62396 11.9571C8.72163 11.6613 9.60578 10.975 10.2443 10.273C10.8809 9.57295 11.3109 8.81866 11.4854 8.32271C11.729 7.63251 11.8934 6.57946 11.9685 5.51261C11.9936 5.15567 12.3294 4.92692 12.6372 5.00186L12.8998 5.06693C13.0602 5.10637 13.1584 5.20793 13.1885 5.31836C13.5979 6.8526 13.5474 8.47056 13.0432 9.97721C13.0146 10.061 13.0095 10.1508 13.0283 10.2372C13.0472 10.3236 13.0893 10.4035 13.1503 10.4684C13.2112 10.5333 13.2888 10.5809 13.3749 10.6062C13.461 10.6315 13.5524 10.6336 13.6396 10.6122L13.6426 10.6112L13.6567 10.6083L13.7148 10.5944C14.0576 10.5229 14.4044 10.4712 14.7533 10.4396C15.4179 10.3805 16.2139 10.3864 16.8685 10.6014C17.0439 10.6585 17.3196 10.8972 17.4399 11.2423C17.5471 11.5459 17.5271 11.9029 17.1732 12.2499L16.8194 12.598L17.1732 12.947C17.2163 12.9894 17.2785 13.0861 17.3276 13.2576C17.3757 13.4223 17.4028 13.6225 17.4028 13.8305C17.4028 14.0395 17.3757 14.2387 17.3276 14.4044C17.2775 14.5759 17.2163 14.6725 17.1732 14.7149L16.8194 15.063L17.1732 15.412C17.2203 15.4584 17.2825 15.5866 17.1782 15.8932C17.0696 16.1906 16.8969 16.4613 16.672 16.6869L16.3181 17.035L16.672 17.384C16.678 17.389 16.7131 17.4333 16.7131 17.5517C16.7086 17.6963 16.6669 17.8374 16.5918 17.9618C16.4264 18.2458 16.0876 18.514 15.5232 18.514V18.515Z" fill="white"/>
</svg>
