<svg width="19" height="18" viewBox="0 0 19 18" fill="none" xmlns="http://www.w3.org/2000/svg">
<path d="M9.5 17.6646C14.248 17.6646 18.1577 13.7549 18.1577 9.00684C18.1577 4.26709 14.2397 0.349121 9.4917 0.349121C4.75195 0.349121 0.842285 4.26709 0.842285 9.00684C0.842285 13.7549 4.75195 17.6646 9.5 17.6646ZM8.57861 13.1323C8.23828 13.1323 7.97266 12.9829 7.72363 12.6758L5.72314 10.2686C5.55713 10.061 5.48242 9.86182 5.48242 9.6377C5.48242 9.17285 5.84766 8.79932 6.3125 8.79932C6.58643 8.79932 6.80225 8.90723 7.01807 9.17285L8.55371 11.0986L11.8989 5.75293C12.0981 5.4458 12.3472 5.27979 12.6377 5.27979C13.0859 5.27979 13.501 5.60352 13.501 6.06836C13.501 6.26758 13.4014 6.4917 13.2769 6.68262L9.40039 12.6675C9.20117 12.9663 8.91064 13.1323 8.57861 13.1323Z" fill="#248A3D"/>
</svg>
