<svg width="16" height="18" viewBox="0 0 16 18" fill="none" xmlns="http://www.w3.org/2000/svg">
<path d="M9.17833 16.4167L12.7142 12.8808C13.6465 11.9485 14.2814 10.7606 14.5386 9.46739C14.7958 8.17419 14.6638 6.83376 14.1592 5.61561C13.6546 4.39745 12.8001 3.35628 11.7038 2.62376C10.6074 1.89123 9.31853 1.50024 8 1.50024C6.68147 1.50024 5.39255 1.89123 4.29623 2.62376C3.19991 3.35628 2.34543 4.39745 1.84083 5.61561C1.33624 6.83376 1.2042 8.17419 1.4614 9.46739C1.71861 10.7606 2.35352 11.9485 3.28583 12.8808L6.8225 16.4167C6.97713 16.5715 7.16075 16.6942 7.36286 16.778C7.56498 16.8618 7.78162 16.9049 8.00041 16.9049C8.2192 16.9049 8.43585 16.8618 8.63796 16.778C8.84008 16.6942 9.0237 16.5715 9.17833 16.4167Z" stroke="#898989" stroke-width="2" stroke-linecap="round" stroke-linejoin="round"/>
<path d="M9.76777 9.93439C10.2366 9.46555 10.5 8.82967 10.5 8.16663C10.5 7.50358 10.2366 6.8677 9.76777 6.39886C9.29893 5.93002 8.66304 5.66663 8 5.66663C7.33696 5.66663 6.70107 5.93002 6.23223 6.39886C5.76339 6.8677 5.5 7.50358 5.5 8.16663C5.5 8.82967 5.76339 9.46555 6.23223 9.93439C6.70107 10.4032 7.33696 10.6666 8 10.6666C8.66304 10.6666 9.29893 10.4032 9.76777 9.93439Z" stroke="#898989" stroke-width="2" stroke-linecap="round" stroke-linejoin="round"/>
</svg>
