<svg xmlns="http://www.w3.org/2000/svg" fill="none" viewBox="0 0 148 42">
  <path fill="#4337C9" d="M18.15 8.56c-.854-.693-1.707-1.2-2.56-1.52-.854-.347-1.68-.52-2.48-.52-1.014 0-1.84.24-2.48.72-.64.48-.96 1.107-.96 1.88 0 .533.16.973.48 1.32.32.347.733.653 1.24.92.533.24 1.12.453 1.76.64.666.187 1.32.387 1.96.6 2.56.853 4.426 2 5.6 3.44 1.2 1.413 1.8 3.267 1.8 5.56 0 1.547-.267 2.947-.8 4.2a8.64 8.64 0 0 1-2.28 3.24c-.987.88-2.214 1.56-3.68 2.04-1.44.507-3.08.76-4.92.76-3.814 0-7.347-1.133-10.6-3.4l3.36-6.32c1.173 1.04 2.333 1.813 3.48 2.32 1.146.507 2.28.76 3.4.76 1.28 0 2.226-.293 2.84-.88.64-.587.96-1.253.96-2 0-.453-.08-.84-.24-1.16-.16-.347-.427-.653-.8-.92-.374-.293-.867-.56-1.48-.8a41.191 41.191 0 0 0-2.16-.8 56.88 56.88 0 0 1-3-1.04c-.96-.4-1.827-.92-2.6-1.56-.747-.64-1.36-1.44-1.84-2.4-.454-.987-.68-2.227-.68-3.72 0-1.493.24-2.84.72-4.04.506-1.227 1.2-2.267 2.08-3.12.906-.88 2-1.56 3.28-2.04C8.856.24 10.31 0 11.91 0c1.493 0 3.053.213 4.68.64 1.626.4 3.186 1 4.68 1.8l-3.12 6.12Zm23.62 9.2c-.24-1.013-.734-1.827-1.48-2.44-.748-.613-1.654-.92-2.72-.92-1.12 0-2.04.293-2.76.88-.694.587-1.134 1.413-1.32 2.48h8.28Zm-8.48 4.2c0 3.12 1.466 4.68 4.4 4.68 1.572 0 2.76-.64 3.56-1.92h7c-1.414 4.693-4.948 7.04-10.6 7.04-1.734 0-3.32-.253-4.76-.76-1.44-.533-2.68-1.28-3.72-2.24a10.024 10.024 0 0 1-2.36-3.44c-.56-1.333-.84-2.827-.84-4.48 0-1.707.266-3.24.8-4.6.532-1.387 1.292-2.56 2.28-3.52.986-.96 2.172-1.693 3.56-2.2 1.412-.533 3-.8 4.76-.8 1.732 0 3.292.267 4.68.8 1.386.507 2.56 1.253 3.52 2.24.96.987 1.692 2.2 2.2 3.64.506 1.413.76 3.013.76 4.8v.76H33.29Zm27.73-5.44V31h-7.24V16.52h-2.4v-6.04h2.4V4.32h7.24v6.16h4.12v6.04h-4.12Zm15.363-1.84h2.6c2.88 0 4.32-1.253 4.32-3.76 0-2.507-1.44-3.76-4.32-3.76h-2.6v7.52Zm0 16.32h-7.84V.84h12.48c3.386 0 5.973.88 7.76 2.64 1.813 1.76 2.72 4.24 2.72 7.44s-.907 5.68-2.72 7.44c-1.787 1.76-4.374 2.64-7.76 2.64h-4.64v10Zm24.84-10.32c0 .667.12 1.293.36 1.88.24.56.56 1.053.96 1.48.427.427.92.76 1.48 1a4.92 4.92 0 0 0 1.88.36c.64 0 1.24-.12 1.8-.36a4.147 4.147 0 0 0 1.48-1c.427-.427.76-.92 1-1.48.267-.56.4-1.16.4-1.8 0-.64-.133-1.24-.4-1.8a4.564 4.564 0 0 0-1-1.52c-.4-.427-.893-.76-1.48-1a4.52 4.52 0 0 0-1.8-.36 4.92 4.92 0 0 0-1.88.36c-.56.24-1.053.573-1.48 1-.4.427-.72.92-.96 1.48a4.24 4.24 0 0 0-.36 1.76Zm9.12-10.2h7.28V31h-7.28v-2.28c-1.546 1.947-3.64 2.92-6.28 2.92-1.493 0-2.866-.267-4.12-.8a10.192 10.192 0 0 1-3.28-2.32 10.895 10.895 0 0 1-2.2-3.48c-.506-1.333-.76-2.787-.76-4.36 0-1.467.254-2.853.76-4.16.507-1.333 1.214-2.493 2.12-3.48a9.75 9.75 0 0 1 3.24-2.32c1.254-.587 2.64-.88 4.16-.88 2.56 0 4.68.893 6.36 2.68v-2.04Zm20.038 17.72-9.92-17.72h8.4l5.48 10.52 5.32-10.52h8.32l-16.48 30.76h-8.12l7-13.04Z" />
</svg>
